FFmpeg version SVN-r25716, Copyright (c) 2000-2010 the FFmpeg developers  built on Nov 10 2010 12:23:18 with gcc 4.1.2 20080704 (Red Hat 4.1.2-48)  configuration: --enable-libmp3lame --enable-shared --disable-mmx --arch=x86_64  libavutil     50.33. 0 / 50.33. 0  libavcore      0.12. 1 /  0.12. 1  libavcodec    52.94. 4 / 52.94. 4  libavformat   52.84. 0 / 52.84. 0  libavdevice   52. 2. 2 / 52. 2. 2  libavfilter    1.59. 0 /  1.59. 0  libswscale     0.12. 0 /  0.12. 0Input #0, avi, from '/RAID10/data/converted_video_files/47375.avi':  Duration: 00:00:03.95, start: 0.000000, bitrate: 20980 kb/s    Stream #0.0: Video: msvideo1, rgb555le, 1024x1024, 20 tbr, 20 tbn, 20 tbc[buffer @ 0x13b38520] w:1024 h:1024 pixfmt:rgb555le[ffsink @ 0x13b65d80] auto-inserting filter 'auto-inserted scaler 0' between the filter 'src' and the filter 'out'[scale @ 0x13b660a0] w:1024 h:1024 fmt:rgb555le -> w:1024 h:1024 fmt:yuv420p flags:0x4Output #0, flv, to '/RAID10/data/converted_video_files/47375.flv':  Metadata:    encoder         : Lavf52.84.0    Stream #0.0: Video: flv, yuv420p, 1024x1024, q=2-31, 600 kb/s, 1k tbn, 24 tbcStream mapping:  Stream #0.0 -> #0.0Press [q] to stop encodingframe=    8 fps=  0 q=12.3 size=     636kB time=0.37 bitrate=13919.9kbits/s    frame=   17 fps= 14 q=31.0 size=     694kB time=0.83 bitrate=6822.9kbits/s    frame=   27 fps= 16 q=31.0 size=     730kB time=1.33 bitrate=4483.8kbits/s    frame=   37 fps= 17 q=24.8 size=     767kB time=1.83 bitrate=3428.2kbits/s    frame=   48 fps= 18 q=31.0 size=     783kB time=2.38 bitrate=2699.7kbits/s    frame=   58 fps= 18 q=31.0 size=     820kB time=2.88 bitrate=2337.7kbits/s    frame=   66 fps= 18 q=31.0 size=     855kB time=3.29 bitrate=2128.2kbits/s    frame=   73 fps= 17 q=24.8 size=     888kB time=3.62 bitrate=2007.7kbits/s    frame=   79 fps= 17 q=31.0 Lsize=     895kB time=3.96 bitrate=1852.4kbits/s    video:894kB audio:0kB global headers:0kB muxing overhead 0.161049%